<mxfile host="app.diagrams.net" modified="2021-03-29T23:10:19.992Z" agent="5.0 (Windows NT 10.0; Win64; x64) AppleWebKit/537.36 (KHTML, like Gecko) Chrome/87.0.4280.141 Safari/537.36 OPR/73.0.3856.421" etag="SjBtdphKSD-nXx-WrIIv" version="14.5.3" type="github">
  <diagram id="C5RBs43oDa-KdzZeNtuy" name="Page-1">
    <mxGraphModel dx="1654" dy="462" grid="1" gridSize="10" guides="1" tooltips="1" connect="1" arrows="1" fold="1" page="1" pageScale="1" pageWidth="827" pageHeight="1169" math="0" shadow="0">
      <root>
        <mxCell id="WIyWlLk6GJQsqaUBKTNV-0" />
        <mxCell id="WIyWlLk6GJQsqaUBKTNV-1" parent="WIyWlLk6GJQsqaUBKTNV-0" />
        <mxCell id="WIyWlLk6GJQsqaUBKTNV-6" value="Login" style="rhombus;whiteSpace=wrap;html=1;shadow=0;fontFamily=Helvetica;fontSize=12;align=center;strokeWidth=1;spacing=6;spacingTop=-4;" parent="WIyWlLk6GJQsqaUBKTNV-1" vertex="1">
          <mxGeometry x="170" y="170" width="100" height="80" as="geometry" />
        </mxCell>
        <mxCell id="WIyWlLk6GJQsqaUBKTNV-7" value="usuário" style="rounded=1;whiteSpace=wrap;html=1;fontSize=12;glass=0;strokeWidth=1;shadow=0;" parent="WIyWlLk6GJQsqaUBKTNV-1" vertex="1">
          <mxGeometry x="-20" y="190" width="120" height="40" as="geometry" />
        </mxCell>
        <mxCell id="hDx_KFLXsRXOdN6dKSve-0" value="Aplicativo" style="rounded=1;whiteSpace=wrap;html=1;fontSize=12;glass=0;strokeWidth=1;shadow=0;" vertex="1" parent="WIyWlLk6GJQsqaUBKTNV-1">
          <mxGeometry x="280" y="300" width="120" height="40" as="geometry" />
        </mxCell>
        <mxCell id="hDx_KFLXsRXOdN6dKSve-1" value="nickname" style="ellipse;whiteSpace=wrap;html=1;" vertex="1" parent="WIyWlLk6GJQsqaUBKTNV-1">
          <mxGeometry x="-30" y="150" width="70" height="30" as="geometry" />
        </mxCell>
        <mxCell id="hDx_KFLXsRXOdN6dKSve-2" value="Senha" style="ellipse;whiteSpace=wrap;html=1;" vertex="1" parent="WIyWlLk6GJQsqaUBKTNV-1">
          <mxGeometry x="50" y="150" width="50" height="25" as="geometry" />
        </mxCell>
        <mxCell id="hDx_KFLXsRXOdN6dKSve-3" value="sexo" style="ellipse;whiteSpace=wrap;html=1;" vertex="1" parent="WIyWlLk6GJQsqaUBKTNV-1">
          <mxGeometry x="-90" y="170" width="50" height="20" as="geometry" />
        </mxCell>
        <mxCell id="hDx_KFLXsRXOdN6dKSve-4" value="e-mail" style="ellipse;whiteSpace=wrap;html=1;" vertex="1" parent="WIyWlLk6GJQsqaUBKTNV-1">
          <mxGeometry x="-80" y="130" width="50" height="30" as="geometry" />
        </mxCell>
        <mxCell id="hDx_KFLXsRXOdN6dKSve-5" value="Idade" style="ellipse;whiteSpace=wrap;html=1;" vertex="1" parent="WIyWlLk6GJQsqaUBKTNV-1">
          <mxGeometry x="-90" y="210" width="50" height="20" as="geometry" />
        </mxCell>
        <mxCell id="hDx_KFLXsRXOdN6dKSve-7" value="Preferências" style="ellipse;whiteSpace=wrap;html=1;" vertex="1" parent="WIyWlLk6GJQsqaUBKTNV-1">
          <mxGeometry x="330" y="75" width="80" height="35" as="geometry" />
        </mxCell>
        <mxCell id="hDx_KFLXsRXOdN6dKSve-8" value="Plataforma" style="ellipse;whiteSpace=wrap;html=1;" vertex="1" parent="WIyWlLk6GJQsqaUBKTNV-1">
          <mxGeometry x="430" y="75" width="70" height="30" as="geometry" />
        </mxCell>
        <mxCell id="hDx_KFLXsRXOdN6dKSve-9" value="" style="endArrow=none;html=1;exitX=1;exitY=0.5;exitDx=0;exitDy=0;entryX=0;entryY=0.5;entryDx=0;entryDy=0;" edge="1" parent="WIyWlLk6GJQsqaUBKTNV-1" source="WIyWlLk6GJQsqaUBKTNV-7" target="WIyWlLk6GJQsqaUBKTNV-6">
          <mxGeometry width="50" height="50" relative="1" as="geometry">
            <mxPoint x="100" y="250" as="sourcePoint" />
            <mxPoint x="150" y="200" as="targetPoint" />
          </mxGeometry>
        </mxCell>
        <mxCell id="hDx_KFLXsRXOdN6dKSve-11" value="Sim" style="rhombus;whiteSpace=wrap;html=1;" vertex="1" parent="WIyWlLk6GJQsqaUBKTNV-1">
          <mxGeometry x="200" y="300" width="40" height="40" as="geometry" />
        </mxCell>
        <mxCell id="hDx_KFLXsRXOdN6dKSve-12" value="Não" style="rhombus;whiteSpace=wrap;html=1;" vertex="1" parent="WIyWlLk6GJQsqaUBKTNV-1">
          <mxGeometry x="120" y="260" width="40" height="40" as="geometry" />
        </mxCell>
        <mxCell id="hDx_KFLXsRXOdN6dKSve-13" value="" style="endArrow=none;html=1;entryX=0.5;entryY=1;entryDx=0;entryDy=0;exitX=0.5;exitY=0;exitDx=0;exitDy=0;" edge="1" parent="WIyWlLk6GJQsqaUBKTNV-1" source="hDx_KFLXsRXOdN6dKSve-11" target="WIyWlLk6GJQsqaUBKTNV-6">
          <mxGeometry width="50" height="50" relative="1" as="geometry">
            <mxPoint x="180" y="310" as="sourcePoint" />
            <mxPoint x="230" y="260" as="targetPoint" />
          </mxGeometry>
        </mxCell>
        <mxCell id="hDx_KFLXsRXOdN6dKSve-14" value="" style="endArrow=none;html=1;entryX=0;entryY=0.5;entryDx=0;entryDy=0;exitX=1;exitY=0.5;exitDx=0;exitDy=0;" edge="1" parent="WIyWlLk6GJQsqaUBKTNV-1" source="hDx_KFLXsRXOdN6dKSve-11" target="hDx_KFLXsRXOdN6dKSve-0">
          <mxGeometry width="50" height="50" relative="1" as="geometry">
            <mxPoint x="140" y="270" as="sourcePoint" />
            <mxPoint x="190" y="220" as="targetPoint" />
          </mxGeometry>
        </mxCell>
        <mxCell id="hDx_KFLXsRXOdN6dKSve-15" value="" style="endArrow=none;html=1;" edge="1" parent="WIyWlLk6GJQsqaUBKTNV-1">
          <mxGeometry width="50" height="50" relative="1" as="geometry">
            <mxPoint x="40" y="330" as="sourcePoint" />
            <mxPoint x="90" y="280" as="targetPoint" />
          </mxGeometry>
        </mxCell>
      </root>
    </mxGraphModel>
  </diagram>
</mxfile>
